<svg width="182" height="24" fill="none" xmlns="http://www.w3.org/2000/svg"><path d="M.4 23V1.4h2.67V23H.4zm7.17 0V1.4h2.7l11.266 16.875V1.4h2.7V23h-2.7L10.27 6.11V23h-2.7zm26.425 0V3.935H26.63V1.4h17.4v2.535h-7.365V23h-2.67zm12.423 0V1.4h13.65v2.535h-10.98V10.7h9.18v2.535h-9.18v7.23h10.98V23h-13.65zm17.256 0V1.4h8.535c.21 0 .46.01.75.03.29.01.57.04.84.09 1.17.18 2.15.58 2.94 1.2.8.62 1.4 1.405 1.8 2.355.4.94.6 1.985.6 3.135 0 1.67-.435 3.12-1.305 4.35-.87 1.22-2.145 1.985-3.825 2.295l-1.02.165h-6.645V23h-2.67zm12.855 0l-4.26-8.79 2.64-.81 4.68 9.6h-3.06zM66.344 12.485h5.775c.19 0 .405-.01.645-.03.25-.02.485-.055.705-.105.69-.16 1.25-.45 1.68-.87.44-.43.76-.93.96-1.5.2-.58.3-1.17.3-1.77 0-.6-.1-1.185-.3-1.755-.2-.58-.52-1.085-.96-1.515-.43-.43-.99-.72-1.68-.87a3.152 3.152 0 00-.705-.105c-.24-.02-.455-.03-.645-.03h-5.775v8.55zM82.893 23V1.4h12.6v2.67h-9.93v6.795h8.13v2.67h-8.13V23h-2.67zm24.173.45c-2.15 0-3.975-.475-5.475-1.425-1.5-.95-2.645-2.27-3.435-3.96-.78-1.69-1.17-3.645-1.17-5.865s.39-4.175 1.17-5.865c.79-1.69 1.935-3.01 3.435-3.96 1.5-.95 3.325-1.425 5.475-1.425 2.16 0 3.99.475 5.49 1.425 1.5.95 2.64 2.27 3.42 3.96.78 1.69 1.17 3.645 1.17 5.865s-.39 4.175-1.17 5.865c-.78 1.69-1.92 3.01-3.42 3.96-1.5.95-3.33 1.425-5.49 1.425zm0-2.55c1.61.01 2.95-.35 4.02-1.08 1.08-.74 1.885-1.765 2.415-3.075.54-1.31.81-2.825.81-4.545 0-1.73-.27-3.245-.81-4.545-.53-1.3-1.335-2.315-2.415-3.045-1.07-.73-2.41-1.1-4.02-1.11-1.61-.01-2.95.35-4.02 1.08-1.06.73-1.86 1.75-2.4 3.06-.54 1.31-.815 2.83-.825 4.56-.01 1.72.255 3.23.795 4.53.54 1.3 1.345 2.32 2.415 3.06 1.08.73 2.425 1.1 4.035 1.11zm13.093 2.1V1.4h8.535c.21 0 .46.01.75.03.29.01.57.04.84.09 1.17.18 2.15.58 2.94 1.2.8.62 1.4 1.405 1.8 2.355.4.94.6 1.985.6 3.135 0 1.67-.435 3.12-1.305 4.35-.87 1.22-2.145 1.985-3.825 2.295l-1.02.165h-6.645V23h-2.67zm12.855 0l-4.26-8.79 2.64-.81 4.68 9.6h-3.06zm-10.185-10.515h5.775c.19 0 .405-.01.645-.03.25-.02.485-.055.705-.105.69-.16 1.25-.45 1.68-.87.44-.43.76-.93.96-1.5.2-.58.3-1.17.3-1.77 0-.6-.1-1.185-.3-1.755-.2-.58-.52-1.085-.96-1.515-.43-.43-.99-.72-1.68-.87a3.152 3.152 0 00-.705-.105c-.24-.02-.455-.03-.645-.03h-5.775v8.55zm25.068 10.965c-1.67 0-3.145-.345-4.425-1.035a7.635 7.635 0 01-3.015-2.895c-.72-1.25-1.08-2.715-1.08-4.395V1.415l2.7-.015v13.5c0 1.02.17 1.91.51 2.67.35.75.81 1.375 1.38 1.875.57.5 1.195.875 1.875 1.125.69.24 1.375.36 2.055.36.69 0 1.38-.125 2.07-.375s1.315-.62 1.875-1.11c.57-.5 1.025-1.13 1.365-1.89.34-.76.51-1.645.51-2.655V1.4h2.7v13.725c0 1.67-.365 3.13-1.095 4.38a7.502 7.502 0 01-3 2.91c-1.28.69-2.755 1.035-4.425 1.035zm12.721-.45V1.4h2.43l8.16 17.205L179.323 1.4h2.46v21.585h-2.535V7.265L171.913 23h-1.425l-7.335-15.735V23h-2.535z" fill="#fff"/></svg>