<svg width="287" height="372" fill="none" xmlns="http://www.w3.org/2000/svg"><g filter="url(#filter0_b_82_31)" fill="#fff"><path d="M132.717 312.916c-25.035 1.145-49.447.989-71.984-10.982C21.853 281.114.877 248.792.356 204.628-.32 137.797.174 70.966.174 4.24V.83C.434.596.591.336.747.336c21.86-.417 43.8-1.171 64.463 8.015 38.568 17.124 61.053 46.48 66.83 88.484.477 3.815.695 7.658.651 11.503v201.429l.026 3.149zm26.78 58.945V215.506a94.129 94.129 0 0184.007-93.376c14.183-1.379 28.627-.208 43.356-.208v156.199a94.68 94.68 0 01-23.114 60.955 94.683 94.683 0 01-57.041 31.562 128.266 128.266 0 01-15.823 1.171c-10.306.182-20.611.052-31.385.052zm65.347-275.703c-25.53 1.405-48.198-19.31-49.681-45.387A48.092 48.092 0 01230.301.53a48.095 48.095 0 0121.069 86.53 48.094 48.094 0 01-26.526 9.098z"/></g><defs><filter id="filter0_b_82_31" x="-4" y="-4" width="294.86" height="379.906" filterUnits="userSpaceOnUse" color-interpolation-filters="sRGB"><feFlood flood-opacity="0" result="BackgroundImageFix"/><feGaussianBlur in="BackgroundImageFix" stdDeviation="2"/><feComposite in2="SourceAlpha" operator="in" result="effect1_backgroundBlur_82_31"/><feBlend in="SourceGraphic" in2="effect1_backgroundBlur_82_31" result="shape"/></filter></defs></svg>