<svg width="437" height="566" fill="none" xmlns="http://www.w3.org/2000/svg"><g filter="url(#filter0_b_84_265)" fill="#fff" fill-opacity=".09"><path d="M201.947 476.145c-38.095 1.742-75.239 1.504-109.533-16.711C33.252 427.754 1.334 378.571.542 311.37-.488 209.677.265 107.985.265 6.451V1.263C.661.907.9.511 1.136.511 34.4-.123 67.783-1.271 99.226 12.708c58.686 26.056 92.9 70.725 101.692 134.639a129.453 129.453 0 01.99 17.503v306.503l.039 4.792zm40.749 89.693V327.922a143.233 143.233 0 01127.828-142.084c21.582-2.099 43.56-.317 65.973-.317v237.678A144.058 144.058 0 01314.53 563.976a194.918 194.918 0 01-24.077 1.782c-15.681.278-31.363.08-47.757.08zm99.435-419.521c-38.848 2.139-73.339-29.383-75.597-69.062a73.186 73.186 0 0141.69-70.187 73.182 73.182 0 01102.48 48.8 73.174 73.174 0 01-28.21 76.605 73.18 73.18 0 01-40.363 13.844z"/></g><defs><filter id="filter0_b_84_265" x="-4" y="-4" width="444.498" height="573.906" filterUnits="userSpaceOnUse" color-interpolation-filters="sRGB"><feFlood flood-opacity="0" result="BackgroundImageFix"/><feGaussianBlur in="BackgroundImageFix" stdDeviation="2"/><feComposite in2="SourceAlpha" operator="in" result="effect1_backgroundBlur_84_265"/><feBlend in="SourceGraphic" in2="effect1_backgroundBlur_84_265" result="shape"/></filter></defs></svg>