<svg width="286" height="370" fill="none" xmlns="http://www.w3.org/2000/svg"><path d="M132.003 311.233c-24.901 1.139-49.18.984-71.596-10.923C21.735 279.602.872 247.454.355 203.528-.318 137.056.173 70.585.173 4.217V.826C.433.593.588.334.743.334 22.486-.08 44.306-.83 64.859 8.307c38.361 17.031 60.725 46.23 66.471 88.007.475 3.795.691 7.617.647 11.441v200.346l.026 3.132zm27 58.531V214.25a93.629 93.629 0 0183.556-92.874c14.107-1.372 28.473-.207 43.123-.207v155.359a94.164 94.164 0 01-79.724 92.02 127.88 127.88 0 01-15.738 1.165c-10.25.181-20.5.051-31.217.051zM223.999 95.64c-25.393 1.398-47.938-19.206-49.414-45.142A47.84 47.84 0 01201.836 4.62a47.836 47.836 0 0148.547 81.972 47.839 47.839 0 01-26.384 9.049z" fill="#fff" fill-opacity=".09"/></svg>