<svg width="27" height="27" fill="none" xmlns="http://www.w3.org/2000/svg"><path d="M25.92 19.664v3.71a2.451 2.451 0 01-.81 1.832 2.504 2.504 0 01-1.913.641 24.876 24.876 0 01-10.779-3.796 24.235 24.235 0 01-7.494-7.42A24.316 24.316 0 011.09 3.911a2.45 2.45 0 01.643-1.89 2.497 2.497 0 011.843-.807h3.746a2.513 2.513 0 011.654.598c.46.392.76.935.844 1.53.159 1.187.452 2.352.875 3.474a2.45 2.45 0 01-.562 2.61l-1.587 1.57a19.885 19.885 0 007.494 7.42l1.586-1.571a2.521 2.521 0 012.635-.556 16.17 16.17 0 003.51.865c.607.085 1.16.387 1.557.85.396.463.607 1.054.591 1.66z" stroke="#7982D7" stroke-width="2" stroke-linecap="round" stroke-linejoin="round"/></svg>